M48
; DRILL file {KiCad (6.0.11)} date Thu May 25 03:37:31 2023
; FORMAT={-:-/ absolute / inch / decimal}
; #@! TF.CreationDate,2023-05-25T03:37:31+07:00
; #@! TF.GenerationSoftware,Kicad,Pcbnew,(6.0.11)
; #@! TF.FileFunction,Plated,1,2,PTH
FMAT,2
INCH
; #@! TA.AperFunction,Plated,PTH,ViaDrill
T1C0.0236
; #@! TA.AperFunction,Plated,PTH,ComponentDrill
T2C0.0300
; #@! TA.AperFunction,Plated,PTH,ComponentDrill
T3C0.0315
; #@! TA.AperFunction,Plated,PTH,ComponentDrill
T4C0.0354
; #@! TA.AperFunction,Plated,PTH,ComponentDrill
T5C0.0394
; #@! TA.AperFunction,Plated,PTH,ComponentDrill
T6C0.0398
; #@! TA.AperFunction,Plated,PTH,ComponentDrill
T7C0.0433
; #@! TA.AperFunction,Plated,PTH,ComponentDrill
T8C0.0472
; #@! TA.AperFunction,Plated,PTH,ComponentDrill
T9C0.0512
%
G90
G05
T1
X1.6673Y-2.3327
X1.7625Y-2.175
X1.7625Y-2.4585
X1.7776Y-2.9311
X1.8334Y-2.2553
X1.8334Y-2.4585
X1.8845Y-2.3482
X1.9298Y-2.4055
X2.4425Y-2.5094
X2.6887Y-2.3494
X2.8501Y-2.351
X2.8668Y-2.4039
X2.9062Y-2.4047
X3.4075Y-2.9744
X3.409Y-2.872
X3.4114Y-3.0689
X3.4114Y-3.1713
X3.4213Y-2.5094
X3.6676Y-2.3494
X3.829Y-2.351
X3.8432Y-2.4055
X3.8826Y-2.4055
X4.3921Y-2.5094
X4.6395Y-2.35
X4.8009Y-2.3515
X4.8196Y-2.4055
X4.859Y-2.4055
X5.374Y-2.5094
X5.6204Y-2.35
X5.7818Y-2.3515
X5.796Y-2.4055
X5.8353Y-2.4055
X6.2283Y-2.9937
X6.3519Y-2.5094
X6.3937Y-2.937
X6.4961Y-2.937
X6.5971Y-2.3503
X6.5984Y-2.937
X6.6929Y-2.937
X6.7586Y-2.3519
X6.7723Y-2.4055
X6.7953Y-2.937
X6.8117Y-2.4055
X6.8898Y-2.937
X6.9921Y-2.937
X7.3287Y-2.5094
X7.5743Y-2.35
X7.7357Y-2.3515
X7.7487Y-2.4055
X7.7881Y-2.4055
X8.0118Y-3.3047
X8.3031Y-2.5098
X8.5507Y-2.35
X8.7121Y-2.3515
X8.7251Y-2.4055
X8.7645Y-2.4055
X8.9425Y-3.3858
X9.2815Y-2.5098
X9.5271Y-2.3475
X9.6181Y-2.7756
X9.6669Y-2.8228
X9.6885Y-2.3491
X9.7244Y-2.4252
X9.8268Y-2.4961
X9.8917Y-1.2697
X9.9425Y-2.7756
X10.0236Y-2.3819
X10.065Y-1.2697
X10.0866Y-2.8228
X10.1024Y-2.2205
X10.6865Y-1.3567
X10.7653Y-1.1142
X10.7653Y-1.2756
X10.8676Y-1.1142
X11.0252Y-1.2756
X11.0487Y-2.5393
X11.1134Y-1.2276
X11.3681Y-2.9429
X11.3681Y-3.002
X11.4503Y-2.5457
X11.4921Y-1.3189
X11.4961Y-1.8716
X11.5453Y-2.9429
X11.5453Y-3.002
X11.592Y-1.3567
T2
X10.1952Y-1.6862
X10.1952Y-2.5862
X10.2952Y-1.6862
X10.2952Y-2.5862
X10.3952Y-1.6862
X10.3952Y-2.5862
X10.4952Y-1.6862
X10.4952Y-2.5862
X10.5952Y-1.6862
X10.5952Y-2.5862
X10.6952Y-1.6862
X10.6952Y-2.5862
X10.7952Y-1.6862
X10.7952Y-2.5862
X10.8952Y-1.6862
X10.8952Y-2.5862
X10.9952Y-1.6862
X10.9952Y-2.5862
X11.0952Y-1.6862
X11.0952Y-2.5862
X11.1952Y-1.6862
X11.1952Y-2.5862
X11.2952Y-1.6862
X11.2952Y-2.5862
X11.3952Y-1.6862
X11.3952Y-2.5862
X11.4952Y-1.6862
X11.4952Y-2.5862
X11.5952Y-1.6862
X11.5952Y-2.5862
T3
X0.9587Y-1.3002
X1.2539Y-1.4577
T4
X2.2584Y-2.2231
X2.3584Y-2.2231
X3.2373Y-2.2231
X3.3373Y-2.2231
X4.2092Y-2.2236
X4.3092Y-2.2236
X5.1901Y-2.2236
X5.2901Y-2.2236
X6.1668Y-2.224
X6.2668Y-2.224
X7.144Y-2.2236
X7.244Y-2.2236
X8.1204Y-2.2236
X8.2204Y-2.2236
X9.0968Y-2.2212
X9.1968Y-2.2212
T5
X0.89Y-3.1767
X1.0947Y-2.0192
X1.2915Y-2.0192
X1.4963Y-3.1767
X2.0538Y-2.1632
X2.0538Y-2.2632
X3.0328Y-2.1632
X3.0328Y-2.2632
X3.3406Y-2.8732
X3.3406Y-2.9732
X3.3406Y-3.0732
X3.3406Y-3.1732
X3.4803Y-2.8752
X3.4803Y-2.9752
X3.4803Y-3.0752
X3.4803Y-3.1752
X4.0046Y-2.1638
X4.0046Y-2.2638
X4.9855Y-2.1638
X4.9855Y-2.2638
X5.9623Y-2.1642
X5.9623Y-2.2642
X6.9395Y-2.1638
X6.9395Y-2.2638
X7.9158Y-2.1638
X7.9158Y-2.2638
X8.8922Y-2.1613
X8.8922Y-2.2613
X9.9613Y-0.9024
X9.9613Y-1.0024
X9.9627Y-1.1862
X9.9627Y-3.0862
X9.9637Y-3.2701
X9.9637Y-3.3701
X10.0613Y-0.9024
X10.0613Y-1.0024
X10.0627Y-1.1862
X10.0627Y-3.0862
X10.0637Y-3.2701
X10.0637Y-3.3701
X10.1613Y-0.9024
X10.1613Y-1.0024
X10.1627Y-1.1862
X10.1627Y-3.0862
X10.1637Y-3.2701
X10.1637Y-3.3701
X10.1912Y-1.4535
X10.1912Y-1.5535
X10.1954Y-2.7163
X10.1954Y-2.8163
X10.2613Y-0.9024
X10.2613Y-1.0024
X10.2627Y-1.1862
X10.2627Y-3.0862
X10.2637Y-3.2701
X10.2637Y-3.3701
X10.2912Y-1.4535
X10.2912Y-1.5535
X10.2954Y-2.7163
X10.2954Y-2.8163
X10.3613Y-0.9024
X10.3613Y-1.0024
X10.3627Y-1.1862
X10.3627Y-3.0862
X10.3637Y-3.2701
X10.3637Y-3.3701
X10.3912Y-1.4535
X10.3912Y-1.5535
X10.3954Y-2.7163
X10.3954Y-2.8163
X10.4613Y-0.9024
X10.4613Y-1.0024
X10.4627Y-1.1862
X10.4627Y-3.0862
X10.4637Y-3.2701
X10.4637Y-3.3701
X10.4912Y-1.4535
X10.4912Y-1.5535
X10.4954Y-2.7163
X10.4954Y-2.8163
X10.5627Y-3.0862
X10.5637Y-3.2701
X10.5637Y-3.3701
X10.5912Y-1.4535
X10.5912Y-1.5535
X10.5954Y-2.7163
X10.5954Y-2.8163
X10.6621Y-0.9024
X10.6621Y-1.0024
X10.6627Y-1.1862
X10.6627Y-3.0862
X10.6637Y-3.2701
X10.6637Y-3.3701
X10.6912Y-1.4535
X10.6912Y-1.5535
X10.6954Y-2.7163
X10.6954Y-2.8163
X10.7621Y-0.9024
X10.7621Y-1.0024
X10.7627Y-1.1862
X10.7912Y-1.4535
X10.7912Y-1.5535
X10.7954Y-2.7163
X10.7954Y-2.8163
X10.8219Y-3.2701
X10.8219Y-3.3701
X10.8225Y-3.0862
X10.8621Y-0.9024
X10.8621Y-1.0024
X10.8627Y-1.1862
X10.8912Y-1.4535
X10.8912Y-1.5535
X10.8954Y-2.7163
X10.8954Y-2.8163
X10.9219Y-3.2701
X10.9219Y-3.3701
X10.9225Y-3.0862
X10.9621Y-0.9024
X10.9621Y-1.0024
X10.9627Y-1.1862
X10.9912Y-1.4535
X10.9912Y-1.5535
X10.9954Y-2.7163
X10.9954Y-2.8163
X11.0219Y-3.2701
X11.0219Y-3.3701
X11.0225Y-3.0862
X11.0621Y-0.9024
X11.0621Y-1.0024
X11.0627Y-1.1862
X11.0912Y-1.4535
X11.0912Y-1.5535
X11.0954Y-2.7163
X11.0954Y-2.8163
X11.1219Y-3.2701
X11.1219Y-3.3701
X11.1225Y-3.0862
X11.1621Y-0.9024
X11.1621Y-1.0024
X11.1627Y-1.1862
X11.1912Y-1.4535
X11.1912Y-1.5535
X11.1954Y-2.7163
X11.1954Y-2.8163
X11.2219Y-3.2701
X11.2219Y-3.3701
X11.2225Y-3.0862
X11.2621Y-0.9024
X11.2621Y-1.0024
X11.2627Y-1.1862
X11.2912Y-1.4535
X11.2912Y-1.5535
X11.2954Y-2.7163
X11.2954Y-2.8163
X11.3219Y-3.2701
X11.3219Y-3.3701
X11.3225Y-3.0862
X11.3621Y-0.9024
X11.3621Y-1.0024
X11.3627Y-1.1862
X11.3912Y-1.4535
X11.3912Y-1.5535
X11.3954Y-2.7163
X11.3954Y-2.8163
X11.4219Y-3.2701
X11.4219Y-3.3701
X11.4225Y-3.0862
X11.4912Y-1.4535
X11.4912Y-1.5535
X11.4954Y-2.7163
X11.4954Y-2.8163
X11.5219Y-3.2701
X11.5219Y-3.3701
X11.5225Y-3.0862
X11.5912Y-1.4535
X11.5912Y-1.5535
X11.5954Y-2.7163
X11.5954Y-2.8163
X11.6219Y-3.2701
X11.6219Y-3.3701
X11.6225Y-3.0862
X11.7219Y-3.2701
X11.7219Y-3.3701
X11.7225Y-3.0862
T6
X1.4961Y-1.4596
X1.5433Y-1.2589
T7
X0.9569Y-1.0217
X1.1569Y-1.0217
X2.1588Y-1.0246
X2.3588Y-1.0246
X2.5588Y-1.0246
X3.1377Y-1.0246
X3.3377Y-1.0246
X3.5377Y-1.0246
X4.1095Y-1.0252
X4.3095Y-1.0252
X4.5095Y-1.0252
X5.0905Y-1.0252
X5.2905Y-1.0252
X5.4905Y-1.0252
X6.0672Y-1.0256
X6.2672Y-1.0256
X6.4672Y-1.0256
X7.0444Y-1.0252
X7.2444Y-1.0252
X7.4444Y-1.0252
X8.0208Y-1.0252
X8.2208Y-1.0252
X8.4208Y-1.0252
X8.9971Y-1.0228
X9.1971Y-1.0228
X9.3971Y-1.0228
T8
X0.8602Y-1.7234
X1.4508Y-1.7234
T9
X2.058Y-1.4012
X2.058Y-2.0012
X2.358Y-1.3012
X2.358Y-1.6012
X2.358Y-2.0012
X2.7034Y-1.2867
X2.7034Y-2.1725
X3.0369Y-1.4012
X3.0369Y-2.0012
X3.3369Y-1.3012
X3.3369Y-1.6012
X3.3369Y-2.0012
X3.6824Y-1.2867
X3.6824Y-2.1725
X4.0088Y-1.4018
X4.0088Y-2.0018
X4.3088Y-1.3018
X4.3088Y-1.6018
X4.3088Y-2.0018
X4.6542Y-1.2872
X4.6542Y-2.173
X4.9897Y-1.4018
X4.9897Y-2.0018
X5.2897Y-1.3018
X5.2897Y-1.6018
X5.2897Y-2.0018
X5.6351Y-1.2872
X5.6351Y-2.173
X5.9664Y-1.4022
X5.9664Y-2.0022
X6.2664Y-1.3022
X6.2664Y-1.6022
X6.2664Y-2.0022
X6.6119Y-1.2876
X6.6119Y-2.1734
X6.9436Y-1.4018
X6.9436Y-2.0018
X7.2436Y-1.3018
X7.2436Y-1.6018
X7.2436Y-2.0018
X7.5891Y-1.2872
X7.5891Y-2.173
X7.92Y-1.4018
X7.92Y-2.0018
X8.22Y-1.3018
X8.22Y-1.6018
X8.22Y-2.0018
X8.5655Y-1.2872
X8.5655Y-2.173
X8.8964Y-1.3993
X8.8964Y-1.9993
X9.1964Y-1.2993
X9.1964Y-1.5993
X9.1964Y-1.9993
X9.5418Y-1.2848
X9.5418Y-2.1706
T0
M30
