%TF.GenerationSoftware,KiCad,Pcbnew,(6.0.11)*%
%TF.CreationDate,2023-05-25T03:36:55+07:00*%
%TF.ProjectId,RELAY_SHEILD_V2,52454c41-595f-4534-9845-494c445f5632,rev?*%
%TF.SameCoordinates,Original*%
%TF.FileFunction,Soldermask,Bot*%
%TF.FilePolarity,Negative*%
%FSLAX46Y46*%
G04 Gerber Fmt 4.6, Leading zero omitted, Abs format (unit mm)*
G04 Created by KiCad (PCBNEW (6.0.11)) date 2023-05-25 03:36:55*
%MOMM*%
%LPD*%
G01*
G04 APERTURE LIST*
G04 Aperture macros list*
%AMRoundRect*
0 Rectangle with rounded corners*
0 $1 Rounding radius*
0 $2 $3 $4 $5 $6 $7 $8 $9 X,Y pos of 4 corners*
0 Add a 4 corners polygon primitive as box body*
4,1,4,$2,$3,$4,$5,$6,$7,$8,$9,$2,$3,0*
0 Add four circle primitives for the rounded corners*
1,1,$1+$1,$2,$3*
1,1,$1+$1,$4,$5*
1,1,$1+$1,$6,$7*
1,1,$1+$1,$8,$9*
0 Add four rect primitives between the rounded corners*
20,1,$1+$1,$2,$3,$4,$5,0*
20,1,$1+$1,$4,$5,$6,$7,0*
20,1,$1+$1,$6,$7,$8,$9,0*
20,1,$1+$1,$8,$9,$2,$3,0*%
G04 Aperture macros list end*
%ADD10C,0.250000*%
%ADD11R,2.300000X2.300000*%
%ADD12C,2.300000*%
%ADD13R,1.700000X1.700000*%
%ADD14O,1.700000X1.700000*%
%ADD15C,1.524000*%
%ADD16R,1.800000X1.800000*%
%ADD17C,1.800000*%
%ADD18C,2.700000*%
%ADD19C,3.000000*%
%ADD20R,2.100000X2.100000*%
%ADD21C,2.100000*%
%ADD22C,2.010000*%
%ADD23R,2.000000X2.300000*%
%ADD24C,2.400000*%
%ADD25RoundRect,0.250000X-0.312500X-0.625000X0.312500X-0.625000X0.312500X0.625000X-0.312500X0.625000X0*%
%ADD26RoundRect,0.150000X0.587500X0.150000X-0.587500X0.150000X-0.587500X-0.150000X0.587500X-0.150000X0*%
%ADD27R,1.100000X1.500000*%
%ADD28RoundRect,0.250000X-0.650000X0.325000X-0.650000X-0.325000X0.650000X-0.325000X0.650000X0.325000X0*%
%ADD29R,1.600000X1.600000*%
%ADD30RoundRect,0.250000X0.312500X0.625000X-0.312500X0.625000X-0.312500X-0.625000X0.312500X-0.625000X0*%
%ADD31R,1.100000X1.100000*%
%ADD32RoundRect,0.250000X1.450000X-0.312500X1.450000X0.312500X-1.450000X0.312500X-1.450000X-0.312500X0*%
%ADD33R,3.150000X1.960000*%
%ADD34RoundRect,0.250000X-1.750000X-1.000000X1.750000X-1.000000X1.750000X1.000000X-1.750000X1.000000X0*%
%ADD35R,1.120000X2.160000*%
%ADD36R,1.500000X1.600000*%
%ADD37R,6.500000X6.700000*%
%ADD38O,1.600000X1.600000*%
G04 APERTURE END LIST*
D10*
X196848055Y-59728195D02*
G75*
G03*
X196848055Y-59728195I-360555J0D01*
G01*
X292360555Y-47539445D02*
G75*
G03*
X292360555Y-47539445I-360555J0D01*
G01*
X251610555Y-32250000D02*
G75*
G03*
X251610555Y-32250000I-360555J0D01*
G01*
X271798055Y-34460000D02*
G75*
G03*
X271798055Y-34460000I-360555J0D01*
G01*
X173378055Y-61100000D02*
G75*
G03*
X173378055Y-61100000I-360555J0D01*
G01*
X221648055Y-59728195D02*
G75*
G03*
X221648055Y-59728195I-360555J0D01*
G01*
X175360555Y-74600000D02*
G75*
G03*
X175360555Y-74600000I-360555J0D01*
G01*
X186510555Y-63739445D02*
G75*
G03*
X186510555Y-63739445I-360555J0D01*
G01*
X167928055Y-59698750D02*
G75*
G03*
X167928055Y-59698750I-360555J0D01*
G01*
X45128055Y-62445000D02*
G75*
G03*
X45128055Y-62445000I-360555J0D01*
G01*
X245900000Y-71700000D02*
G75*
G03*
X245900000Y-71700000I-360555J0D01*
G01*
X147218055Y-59728195D02*
G75*
G03*
X147218055Y-59728195I-360555J0D01*
G01*
X87010555Y-80550000D02*
G75*
G03*
X87010555Y-80550000I-360555J0D01*
G01*
X227500000Y-86000000D02*
G75*
G03*
X227500000Y-86000000I-360555J0D01*
G01*
X289110555Y-76250000D02*
G75*
G03*
X289110555Y-76250000I-360555J0D01*
G01*
X123778055Y-61100000D02*
G75*
G03*
X123778055Y-61100000I-360555J0D01*
G01*
X45128055Y-55245000D02*
G75*
G03*
X45128055Y-55245000I-360555J0D01*
G01*
X247360555Y-61600000D02*
G75*
G03*
X247360555Y-61600000I-360555J0D01*
G01*
X293610555Y-76250000D02*
G75*
G03*
X293610555Y-76250000I-360555J0D01*
G01*
X293610555Y-74750000D02*
G75*
G03*
X293610555Y-74750000I-360555J0D01*
G01*
X87260555Y-63739445D02*
G75*
G03*
X87260555Y-63739445I-360555J0D01*
G01*
X45510555Y-74450000D02*
G75*
G03*
X45510555Y-74450000I-360555J0D01*
G01*
X93518055Y-59674750D02*
G75*
G03*
X93518055Y-59674750I-360555J0D01*
G01*
X49378055Y-61100000D02*
G75*
G03*
X49378055Y-61100000I-360555J0D01*
G01*
X118203055Y-59688750D02*
G75*
G03*
X118203055Y-59688750I-360555J0D01*
G01*
X292260555Y-33500000D02*
G75*
G03*
X292260555Y-33500000I-360555J0D01*
G01*
X42710555Y-59250000D02*
G75*
G03*
X42710555Y-59250000I-360555J0D01*
G01*
X136860555Y-63739445D02*
G75*
G03*
X136860555Y-63739445I-360555J0D01*
G01*
X68653055Y-59674750D02*
G75*
G03*
X68653055Y-59674750I-360555J0D01*
G01*
X86910555Y-75550000D02*
G75*
G03*
X86910555Y-75550000I-360555J0D01*
G01*
X256960555Y-56400000D02*
G75*
G03*
X256960555Y-56400000I-360555J0D01*
G01*
X98978055Y-61100000D02*
G75*
G03*
X98978055Y-61100000I-360555J0D01*
G01*
X242348055Y-59626875D02*
G75*
G03*
X242348055Y-59626875I-360555J0D01*
G01*
X197178055Y-61100000D02*
G75*
G03*
X197178055Y-61100000I-360555J0D01*
G01*
X148578055Y-61100000D02*
G75*
G03*
X148578055Y-61100000I-360555J0D01*
G01*
X236110555Y-63750000D02*
G75*
G03*
X236110555Y-63750000I-360555J0D01*
G01*
X249960555Y-63400000D02*
G75*
G03*
X249960555Y-63400000I-360555J0D01*
G01*
X244660555Y-70500000D02*
G75*
G03*
X244660555Y-70500000I-360555J0D01*
G01*
X73178055Y-61060000D02*
G75*
G03*
X73178055Y-61060000I-360555J0D01*
G01*
X97618055Y-59714195D02*
G75*
G03*
X97618055Y-59714195I-360555J0D01*
G01*
X256010555Y-32250000D02*
G75*
G03*
X256010555Y-32250000I-360555J0D01*
G01*
X256560555Y-71700000D02*
G75*
G03*
X256560555Y-71700000I-360555J0D01*
G01*
X254960555Y-60500000D02*
G75*
G03*
X254960555Y-60500000I-360555J0D01*
G01*
X162760555Y-74600000D02*
G75*
G03*
X162760555Y-74600000I-360555J0D01*
G01*
X172960555Y-74600000D02*
G75*
G03*
X172960555Y-74600000I-360555J0D01*
G01*
X282640555Y-31180000D02*
G75*
G03*
X282640555Y-31180000I-360555J0D01*
G01*
X273800000Y-32400000D02*
G75*
G03*
X273800000Y-32400000I-360555J0D01*
G01*
X276398055Y-28299445D02*
G75*
G03*
X276398055Y-28299445I-360555J0D01*
G01*
X167960555Y-74600000D02*
G75*
G03*
X167960555Y-74600000I-360555J0D01*
G01*
X289110555Y-74750000D02*
G75*
G03*
X289110555Y-74750000I-360555J0D01*
G01*
X203860555Y-83939445D02*
G75*
G03*
X203860555Y-83939445I-360555J0D01*
G01*
X122303055Y-59728195D02*
G75*
G03*
X122303055Y-59728195I-360555J0D01*
G01*
X217548055Y-59688750D02*
G75*
G03*
X217548055Y-59688750I-360555J0D01*
G01*
X177960555Y-74600000D02*
G75*
G03*
X177960555Y-74600000I-360555J0D01*
G01*
X246448055Y-59666320D02*
G75*
G03*
X246448055Y-59666320I-360555J0D01*
G01*
X46928055Y-57284445D02*
G75*
G03*
X46928055Y-57284445I-360555J0D01*
G01*
X87010555Y-77950000D02*
G75*
G03*
X87010555Y-77950000I-360555J0D01*
G01*
X172378055Y-61100000D02*
G75*
G03*
X172378055Y-61100000I-360555J0D01*
G01*
X122778055Y-61100000D02*
G75*
G03*
X122778055Y-61100000I-360555J0D01*
G01*
X143118055Y-59688750D02*
G75*
G03*
X143118055Y-59688750I-360555J0D01*
G01*
X161700000Y-63739445D02*
G75*
G03*
X161700000Y-63739445I-360555J0D01*
G01*
X221978055Y-61100000D02*
G75*
G03*
X221978055Y-61100000I-360555J0D01*
G01*
X291198055Y-64660000D02*
G75*
G03*
X291198055Y-64660000I-360555J0D01*
G01*
X72753055Y-59714195D02*
G75*
G03*
X72753055Y-59714195I-360555J0D01*
G01*
X198178055Y-61100000D02*
G75*
G03*
X198178055Y-61100000I-360555J0D01*
G01*
X62400000Y-63739445D02*
G75*
G03*
X62400000Y-63739445I-360555J0D01*
G01*
X74178055Y-61080000D02*
G75*
G03*
X74178055Y-61080000I-360555J0D01*
G01*
X158560555Y-76039445D02*
G75*
G03*
X158560555Y-76039445I-360555J0D01*
G01*
X48228055Y-59645000D02*
G75*
G03*
X48228055Y-59645000I-360555J0D01*
G01*
X158560555Y-76039445D02*
G75*
G03*
X158560555Y-76039445I-360555J0D01*
G01*
X86950000Y-72950000D02*
G75*
G03*
X86950000Y-72950000I-360555J0D01*
G01*
X111921110Y-63739445D02*
G75*
G03*
X111921110Y-63739445I-360555J0D01*
G01*
X280998055Y-64499445D02*
G75*
G03*
X280998055Y-64499445I-360555J0D01*
G01*
X222978055Y-61100000D02*
G75*
G03*
X222978055Y-61100000I-360555J0D01*
G01*
X273798055Y-28299445D02*
G75*
G03*
X273798055Y-28299445I-360555J0D01*
G01*
X170360555Y-74600000D02*
G75*
G03*
X170360555Y-74600000I-360555J0D01*
G01*
X147578055Y-61100000D02*
G75*
G03*
X147578055Y-61100000I-360555J0D01*
G01*
X211260555Y-63750000D02*
G75*
G03*
X211260555Y-63750000I-360555J0D01*
G01*
X46928055Y-62445000D02*
G75*
G03*
X46928055Y-62445000I-360555J0D01*
G01*
X252900000Y-70500000D02*
G75*
G03*
X252900000Y-70500000I-360555J0D01*
G01*
X172028055Y-59738195D02*
G75*
G03*
X172028055Y-59738195I-360555J0D01*
G01*
X192748055Y-59688750D02*
G75*
G03*
X192748055Y-59688750I-360555J0D01*
G01*
X280400000Y-32400000D02*
G75*
G03*
X280400000Y-32400000I-360555J0D01*
G01*
X97978055Y-61100000D02*
G75*
G03*
X97978055Y-61100000I-360555J0D01*
G01*
X294798055Y-34460000D02*
G75*
G03*
X294798055Y-34460000I-360555J0D01*
G01*
X165360555Y-74600000D02*
G75*
G03*
X165360555Y-74600000I-360555J0D01*
G01*
D11*
%TO.C,K4*%
X134357500Y-50845000D03*
D12*
X134357500Y-40685000D03*
X134357500Y-33065000D03*
X126737500Y-35605000D03*
X126737500Y-50845000D03*
%TD*%
D13*
%TO.C,J18*%
X253077500Y-85600000D03*
D14*
X253077500Y-83060000D03*
X255617500Y-85600000D03*
X255617500Y-83060000D03*
X258157500Y-85600000D03*
X258157500Y-83060000D03*
X260697500Y-85600000D03*
X260697500Y-83060000D03*
X263237500Y-85600000D03*
X263237500Y-83060000D03*
X265777500Y-85600000D03*
X265777500Y-83060000D03*
X268317500Y-85600000D03*
X268317500Y-83060000D03*
X270857500Y-85600000D03*
X270857500Y-83060000D03*
%TD*%
D15*
%TO.C,U3*%
X258957500Y-65690000D03*
X261497500Y-65690000D03*
X264037500Y-65690000D03*
X266577500Y-65690000D03*
X269117500Y-65690000D03*
X271657500Y-65690000D03*
X274197500Y-65690000D03*
X276737500Y-65690000D03*
X279277500Y-65690000D03*
X281817500Y-65690000D03*
X284357500Y-65690000D03*
X286897500Y-65690000D03*
X289437500Y-65690000D03*
X291977500Y-65690000D03*
X294517500Y-65690000D03*
X294517500Y-42830000D03*
X291977500Y-42830000D03*
X289437500Y-42830000D03*
X286897500Y-42830000D03*
X284357500Y-42830000D03*
X281817500Y-42830000D03*
X279277500Y-42830000D03*
X276737500Y-42830000D03*
X274197500Y-42830000D03*
X271657500Y-42830000D03*
X269117500Y-42830000D03*
X266577500Y-42830000D03*
X264037500Y-42830000D03*
X261497500Y-42830000D03*
X258957500Y-42830000D03*
%TD*%
D16*
%TO.C,D14*%
X208797500Y-56480000D03*
D17*
X206257500Y-56480000D03*
%TD*%
D18*
%TO.C,F10*%
X217562500Y-43945000D03*
D19*
X217562500Y-55195000D03*
X217562500Y-32695000D03*
%TD*%
D13*
%TO.C,J22*%
X52167500Y-54946000D03*
D14*
X52167500Y-57486000D03*
%TD*%
D16*
%TO.C,D8*%
X134367500Y-56480000D03*
D17*
X131827500Y-56480000D03*
%TD*%
D18*
%TO.C,F7*%
X143132500Y-43945000D03*
D19*
X143132500Y-55195000D03*
X143132500Y-32695000D03*
%TD*%
D18*
%TO.C,F5*%
X93532500Y-43931000D03*
D19*
X93532500Y-55181000D03*
X93532500Y-32681000D03*
%TD*%
D11*
%TO.C,K7*%
X208787500Y-50845000D03*
D12*
X208787500Y-40685000D03*
X208787500Y-33065000D03*
X201167500Y-35605000D03*
X201167500Y-50845000D03*
%TD*%
D16*
%TO.C,D16*%
X183997500Y-56480000D03*
D17*
X181457500Y-56480000D03*
%TD*%
D11*
%TO.C,K6*%
X233587500Y-50783125D03*
D12*
X233587500Y-40623125D03*
X233587500Y-33003125D03*
X225967500Y-35543125D03*
X225967500Y-50783125D03*
%TD*%
D20*
%TO.C,J13*%
X24305000Y-25950000D03*
D21*
X29385000Y-25950000D03*
%TD*%
D18*
%TO.C,F9*%
X242362500Y-43883125D03*
D19*
X242362500Y-55133125D03*
X242362500Y-32633125D03*
%TD*%
D13*
%TO.C,J21*%
X294417500Y-36920000D03*
D14*
X294417500Y-39460000D03*
X291877500Y-36920000D03*
X291877500Y-39460000D03*
X289337500Y-36920000D03*
X289337500Y-39460000D03*
X286797500Y-36920000D03*
X286797500Y-39460000D03*
X284257500Y-36920000D03*
X284257500Y-39460000D03*
X281717500Y-36920000D03*
X281717500Y-39460000D03*
X279177500Y-36920000D03*
X279177500Y-39460000D03*
X276637500Y-36920000D03*
X276637500Y-39460000D03*
X274097500Y-36920000D03*
X274097500Y-39460000D03*
X271557500Y-36920000D03*
X271557500Y-39460000D03*
X269017500Y-36920000D03*
X269017500Y-39460000D03*
X266477500Y-36920000D03*
X266477500Y-39460000D03*
X263937500Y-36920000D03*
X263937500Y-39460000D03*
X261397500Y-36920000D03*
X261397500Y-39460000D03*
X258857500Y-36920000D03*
X258857500Y-39460000D03*
%TD*%
D13*
%TO.C,J28*%
X126632500Y-54960000D03*
D14*
X126632500Y-57500000D03*
%TD*%
D13*
%TO.C,J34*%
X201062500Y-54960000D03*
D14*
X201062500Y-57500000D03*
%TD*%
D11*
%TO.C,K1*%
X59892500Y-50831000D03*
D12*
X59892500Y-40671000D03*
X59892500Y-33051000D03*
X52272500Y-35591000D03*
X52272500Y-50831000D03*
%TD*%
D13*
%TO.C,J32*%
X225862500Y-54898125D03*
D14*
X225862500Y-57438125D03*
%TD*%
D11*
%TO.C,K3*%
X109442500Y-50845000D03*
D12*
X109442500Y-40685000D03*
X109442500Y-33065000D03*
X101822500Y-35605000D03*
X101822500Y-50845000D03*
%TD*%
D13*
%TO.C,J36*%
X176262500Y-54960000D03*
D14*
X176262500Y-57500000D03*
%TD*%
D22*
%TO.C,F2*%
X39200000Y-31975000D03*
X38000000Y-37075000D03*
%TD*%
D20*
%TO.C,J29*%
X129297500Y-26040000D03*
D21*
X134377500Y-26040000D03*
X139457500Y-26040000D03*
%TD*%
D18*
%TO.C,F6*%
X118217500Y-43945000D03*
D19*
X118217500Y-55195000D03*
X118217500Y-32695000D03*
%TD*%
D17*
%TO.C,RV1*%
X31850000Y-37025000D03*
X24350000Y-33025000D03*
%TD*%
D11*
%TO.C,K8*%
X183987500Y-50845000D03*
D12*
X183987500Y-40685000D03*
X183987500Y-33065000D03*
X176367500Y-35605000D03*
X176367500Y-50845000D03*
%TD*%
D17*
%TO.C,D6*%
X106912500Y-56480000D03*
D16*
X109452500Y-56480000D03*
%TD*%
D18*
%TO.C,F8*%
X167942500Y-43955000D03*
D19*
X167942500Y-55205000D03*
X167942500Y-32705000D03*
%TD*%
D17*
%TO.C,D4*%
X82227500Y-56466000D03*
D16*
X84767500Y-56466000D03*
%TD*%
D20*
%TO.C,J33*%
X228527500Y-25978125D03*
D21*
X233607500Y-25978125D03*
X238687500Y-25978125D03*
%TD*%
D13*
%TO.C,J6*%
X88400000Y-80650000D03*
D14*
X88400000Y-78110000D03*
X88400000Y-75570000D03*
X88400000Y-73030000D03*
%TD*%
D13*
%TO.C,J30*%
X151442500Y-54970000D03*
D14*
X151442500Y-57510000D03*
%TD*%
D11*
%TO.C,K5*%
X159167500Y-50855000D03*
D12*
X159167500Y-40695000D03*
X159167500Y-33075000D03*
X151547500Y-35615000D03*
X151547500Y-50855000D03*
%TD*%
D13*
%TO.C,J17*%
X297737500Y-83060000D03*
D14*
X297737500Y-85600000D03*
X295197500Y-83060000D03*
X295197500Y-85600000D03*
X292657500Y-83060000D03*
X292657500Y-85600000D03*
X290117500Y-83060000D03*
X290117500Y-85600000D03*
X287577500Y-83060000D03*
X287577500Y-85600000D03*
X285037500Y-83060000D03*
X285037500Y-85600000D03*
X282497500Y-83060000D03*
X282497500Y-85600000D03*
X279957500Y-83060000D03*
X279957500Y-85600000D03*
X277417500Y-83060000D03*
X277417500Y-85600000D03*
X274877500Y-83060000D03*
X274877500Y-85600000D03*
%TD*%
D23*
%TO.C,PS1*%
X32805000Y-51287500D03*
D12*
X27805000Y-51287500D03*
X38005000Y-80687500D03*
X22605000Y-80687500D03*
%TD*%
D20*
%TO.C,J31*%
X154107500Y-26050000D03*
D21*
X159187500Y-26050000D03*
X164267500Y-26050000D03*
%TD*%
D13*
%TO.C,J24*%
X77032500Y-54946000D03*
D14*
X77032500Y-57486000D03*
%TD*%
D11*
%TO.C,K2*%
X84757500Y-50831000D03*
D12*
X84757500Y-40671000D03*
X84757500Y-33051000D03*
X77137500Y-35591000D03*
X77137500Y-50831000D03*
%TD*%
D20*
%TO.C,J25*%
X79697500Y-26026000D03*
D21*
X84777500Y-26026000D03*
X89857500Y-26026000D03*
%TD*%
D24*
%TO.C,C3*%
X36850000Y-43775000D03*
X21850000Y-43775000D03*
%TD*%
D13*
%TO.C,J26*%
X101717500Y-54960000D03*
D14*
X101717500Y-57500000D03*
%TD*%
D20*
%TO.C,J23*%
X54832500Y-26026000D03*
D21*
X59912500Y-26026000D03*
X64992500Y-26026000D03*
%TD*%
D20*
%TO.C,J37*%
X178927500Y-26040000D03*
D21*
X184007500Y-26040000D03*
X189087500Y-26040000D03*
%TD*%
D18*
%TO.C,F11*%
X192762500Y-43945000D03*
D19*
X192762500Y-55195000D03*
X192762500Y-32695000D03*
%TD*%
D16*
%TO.C,D2*%
X59902500Y-56466000D03*
D17*
X57362500Y-56466000D03*
%TD*%
D13*
%TO.C,J15*%
X253017500Y-25460000D03*
D14*
X253017500Y-22920000D03*
X255557500Y-25460000D03*
X255557500Y-22920000D03*
X258097500Y-25460000D03*
X258097500Y-22920000D03*
X260637500Y-25460000D03*
X260637500Y-22920000D03*
X263177500Y-25460000D03*
X263177500Y-22920000D03*
X265717500Y-25460000D03*
X265717500Y-22920000D03*
%TD*%
D16*
%TO.C,D10*%
X159177500Y-56490000D03*
D17*
X156637500Y-56490000D03*
%TD*%
D20*
%TO.C,J27*%
X104382500Y-26040000D03*
D21*
X109462500Y-26040000D03*
X114542500Y-26040000D03*
%TD*%
D16*
%TO.C,D12*%
X233597500Y-56418125D03*
D17*
X231057500Y-56418125D03*
%TD*%
D20*
%TO.C,J35*%
X203727500Y-26040000D03*
D21*
X208807500Y-26040000D03*
X213887500Y-26040000D03*
%TD*%
D13*
%TO.C,J19*%
X288597500Y-22920000D03*
D14*
X288597500Y-25460000D03*
X286057500Y-22920000D03*
X286057500Y-25460000D03*
X283517500Y-22920000D03*
X283517500Y-25460000D03*
X280977500Y-22920000D03*
X280977500Y-25460000D03*
X278437500Y-22920000D03*
X278437500Y-25460000D03*
X275897500Y-22920000D03*
X275897500Y-25460000D03*
X273357500Y-22920000D03*
X273357500Y-25460000D03*
X270817500Y-22920000D03*
X270817500Y-25460000D03*
%TD*%
D18*
%TO.C,F4*%
X68667500Y-43931000D03*
D19*
X68667500Y-55181000D03*
X68667500Y-32681000D03*
%TD*%
D13*
%TO.C,J20*%
X258962500Y-71535000D03*
D14*
X258962500Y-68995000D03*
X261502500Y-71535000D03*
X261502500Y-68995000D03*
X264042500Y-71535000D03*
X264042500Y-68995000D03*
X266582500Y-71535000D03*
X266582500Y-68995000D03*
X269122500Y-71535000D03*
X269122500Y-68995000D03*
X271662500Y-71535000D03*
X271662500Y-68995000D03*
X274202500Y-71535000D03*
X274202500Y-68995000D03*
X276742500Y-71535000D03*
X276742500Y-68995000D03*
X279282500Y-71535000D03*
X279282500Y-68995000D03*
X281822500Y-71535000D03*
X281822500Y-68995000D03*
X284362500Y-71535000D03*
X284362500Y-68995000D03*
X286902500Y-71535000D03*
X286902500Y-68995000D03*
X289442500Y-71535000D03*
X289442500Y-68995000D03*
X291982500Y-71535000D03*
X291982500Y-68995000D03*
X294522500Y-71535000D03*
X294522500Y-68995000D03*
%TD*%
D25*
%TO.C,R5*%
X63742500Y-63631000D03*
X66667500Y-63631000D03*
%TD*%
D26*
%TO.C,Q8*%
X189950000Y-59695000D03*
X189950000Y-61595000D03*
X188075000Y-60645000D03*
%TD*%
D25*
%TO.C,R9*%
X79495000Y-50116000D03*
X82420000Y-50116000D03*
%TD*%
D27*
%TO.C,SW9*%
X194412500Y-68645000D03*
X194412500Y-59745000D03*
%TD*%
D28*
%TO.C,C1*%
X34987738Y-57407738D03*
X34987738Y-60357738D03*
%TD*%
D25*
%TO.C,R6*%
X54630000Y-50116000D03*
X57555000Y-50116000D03*
%TD*%
D29*
%TO.C,U6*%
X109535000Y-61375000D03*
X109535000Y-63915000D03*
X101915000Y-63915000D03*
X101915000Y-61375000D03*
%TD*%
D26*
%TO.C,Q5*%
X165130000Y-59705000D03*
X165130000Y-61605000D03*
X163255000Y-60655000D03*
%TD*%
D30*
%TO.C,R13*%
X132095000Y-66895000D03*
X129170000Y-66895000D03*
%TD*%
D29*
%TO.C,U8*%
X159260000Y-61385000D03*
X159260000Y-63925000D03*
X151640000Y-63925000D03*
X151640000Y-61385000D03*
%TD*%
D31*
%TO.C,D3*%
X54817500Y-46381000D03*
X57617500Y-46381000D03*
%TD*%
D30*
%TO.C,R7*%
X82495000Y-66881000D03*
X79570000Y-66881000D03*
%TD*%
D26*
%TO.C,Q7*%
X214750000Y-59695000D03*
X214750000Y-61595000D03*
X212875000Y-60645000D03*
%TD*%
%TO.C,Q1*%
X65855000Y-59681000D03*
X65855000Y-61581000D03*
X63980000Y-60631000D03*
%TD*%
D25*
%TO.C,R11*%
X113292500Y-63645000D03*
X116217500Y-63645000D03*
%TD*%
D28*
%TO.C,C6*%
X44705000Y-68775000D03*
X44705000Y-71725000D03*
%TD*%
D27*
%TO.C,SW3*%
X95182500Y-68631000D03*
X95182500Y-59731000D03*
%TD*%
D28*
%TO.C,C2*%
X44787738Y-57332738D03*
X44787738Y-60282738D03*
%TD*%
D27*
%TO.C,SW7*%
X244012500Y-68583125D03*
X244012500Y-59683125D03*
%TD*%
%TO.C,SW2*%
X70317500Y-68631000D03*
X70317500Y-59731000D03*
%TD*%
D32*
%TO.C,F3*%
X22600000Y-76912500D03*
X22600000Y-72637500D03*
%TD*%
D25*
%TO.C,R21*%
X228325000Y-50068125D03*
X231250000Y-50068125D03*
%TD*%
D27*
%TO.C,SW5*%
X144782500Y-68645000D03*
X144782500Y-59745000D03*
%TD*%
D31*
%TO.C,D13*%
X228512500Y-46333125D03*
X231312500Y-46333125D03*
%TD*%
D25*
%TO.C,R8*%
X88607500Y-63631000D03*
X91532500Y-63631000D03*
%TD*%
%TO.C,R14*%
X138207500Y-63645000D03*
X141132500Y-63645000D03*
%TD*%
%TO.C,R18*%
X153905000Y-50140000D03*
X156830000Y-50140000D03*
%TD*%
D26*
%TO.C,Q3*%
X115405000Y-59695000D03*
X115405000Y-61595000D03*
X113530000Y-60645000D03*
%TD*%
D29*
%TO.C,U5*%
X84850000Y-61361000D03*
X84850000Y-63901000D03*
X77230000Y-63901000D03*
X77230000Y-61361000D03*
%TD*%
D31*
%TO.C,D9*%
X129282500Y-46395000D03*
X132082500Y-46395000D03*
%TD*%
D29*
%TO.C,U11*%
X184080000Y-61375000D03*
X184080000Y-63915000D03*
X176460000Y-63915000D03*
X176460000Y-61375000D03*
%TD*%
D30*
%TO.C,R4*%
X57630000Y-66881000D03*
X54705000Y-66881000D03*
%TD*%
D25*
%TO.C,R12*%
X104180000Y-50130000D03*
X107105000Y-50130000D03*
%TD*%
%TO.C,R26*%
X187837500Y-63645000D03*
X190762500Y-63645000D03*
%TD*%
%TO.C,R27*%
X178725000Y-50130000D03*
X181650000Y-50130000D03*
%TD*%
D29*
%TO.C,U7*%
X134450000Y-61375000D03*
X134450000Y-63915000D03*
X126830000Y-63915000D03*
X126830000Y-61375000D03*
%TD*%
D33*
%TO.C,F1*%
X34350000Y-27070000D03*
X34350000Y-31980000D03*
%TD*%
D31*
%TO.C,D15*%
X203712500Y-46395000D03*
X206512500Y-46395000D03*
%TD*%
D34*
%TO.C,C5*%
X22600000Y-65275000D03*
X30600000Y-65275000D03*
%TD*%
D35*
%TO.C,SW1*%
X44837500Y-53210000D03*
X42297500Y-53210000D03*
X42297500Y-46480000D03*
X44837500Y-46480000D03*
%TD*%
D30*
%TO.C,R22*%
X206525000Y-66895000D03*
X203600000Y-66895000D03*
%TD*%
D31*
%TO.C,D5*%
X79682500Y-46381000D03*
X82482500Y-46381000D03*
%TD*%
D27*
%TO.C,SW8*%
X219212500Y-68645000D03*
X219212500Y-59745000D03*
%TD*%
D26*
%TO.C,Q4*%
X140320000Y-59695000D03*
X140320000Y-61595000D03*
X138445000Y-60645000D03*
%TD*%
D30*
%TO.C,R25*%
X181725000Y-66895000D03*
X178800000Y-66895000D03*
%TD*%
D36*
%TO.C,U2*%
X37505000Y-68750000D03*
D37*
X39805000Y-74900000D03*
D36*
X42105000Y-68750000D03*
%TD*%
D27*
%TO.C,SW6*%
X169592500Y-68655000D03*
X169592500Y-59755000D03*
%TD*%
D31*
%TO.C,D17*%
X178912500Y-46395000D03*
X181712500Y-46395000D03*
%TD*%
D28*
%TO.C,C4*%
X34905000Y-68775000D03*
X34905000Y-71725000D03*
%TD*%
D13*
%TO.C,J1*%
X84850000Y-80600000D03*
D14*
X84850000Y-78060000D03*
X84850000Y-75520000D03*
X84850000Y-72980000D03*
%TD*%
D36*
%TO.C,U1*%
X37487738Y-57367262D03*
D37*
X39787738Y-63517262D03*
D36*
X42087738Y-57367262D03*
%TD*%
D30*
%TO.C,R10*%
X107180000Y-66895000D03*
X104255000Y-66895000D03*
%TD*%
D25*
%TO.C,R23*%
X212637500Y-63645000D03*
X215562500Y-63645000D03*
%TD*%
%TO.C,R24*%
X203525000Y-50130000D03*
X206450000Y-50130000D03*
%TD*%
D27*
%TO.C,SW4*%
X119867500Y-68645000D03*
X119867500Y-59745000D03*
%TD*%
D29*
%TO.C,A1*%
X288612500Y-30130000D03*
D38*
X286072500Y-30130000D03*
X283532500Y-30130000D03*
X280992500Y-30130000D03*
X278452500Y-30130000D03*
X275912500Y-30130000D03*
X273372500Y-30130000D03*
X270832500Y-30130000D03*
X265752500Y-30130000D03*
X263212500Y-30130000D03*
X260672500Y-30130000D03*
X258132500Y-30130000D03*
X255592500Y-30130000D03*
X253052500Y-30130000D03*
X253052500Y-78390000D03*
X255592500Y-78390000D03*
X258132500Y-78390000D03*
X260672500Y-78390000D03*
X263212500Y-78390000D03*
X265752500Y-78390000D03*
X268292500Y-78390000D03*
X270832500Y-78390000D03*
X274892500Y-78390000D03*
X277432500Y-78390000D03*
X279972500Y-78390000D03*
X282512500Y-78390000D03*
X285052500Y-78390000D03*
X287592500Y-78390000D03*
X290132500Y-78390000D03*
X292672500Y-78390000D03*
X295212500Y-78390000D03*
X297752500Y-78390000D03*
%TD*%
D26*
%TO.C,Q2*%
X90720000Y-59681000D03*
X90720000Y-61581000D03*
X88845000Y-60631000D03*
%TD*%
%TO.C,Q6*%
X239550000Y-59633125D03*
X239550000Y-61533125D03*
X237675000Y-60583125D03*
%TD*%
D25*
%TO.C,R17*%
X163017500Y-63655000D03*
X165942500Y-63655000D03*
%TD*%
D30*
%TO.C,R19*%
X231325000Y-66833125D03*
X228400000Y-66833125D03*
%TD*%
D25*
%TO.C,R20*%
X237437500Y-63583125D03*
X240362500Y-63583125D03*
%TD*%
D31*
%TO.C,D11*%
X154092500Y-46405000D03*
X156892500Y-46405000D03*
%TD*%
D29*
%TO.C,U4*%
X59985000Y-61361000D03*
X59985000Y-63901000D03*
X52365000Y-63901000D03*
X52365000Y-61361000D03*
%TD*%
%TO.C,U9*%
X233680000Y-61313125D03*
X233680000Y-63853125D03*
X226060000Y-63853125D03*
X226060000Y-61313125D03*
%TD*%
D25*
%TO.C,R15*%
X129095000Y-50130000D03*
X132020000Y-50130000D03*
%TD*%
D29*
%TO.C,U10*%
X208880000Y-61375000D03*
X208880000Y-63915000D03*
X201260000Y-63915000D03*
X201260000Y-61375000D03*
%TD*%
D31*
%TO.C,D7*%
X104367500Y-46395000D03*
X107167500Y-46395000D03*
%TD*%
D30*
%TO.C,R16*%
X156905000Y-66905000D03*
X153980000Y-66905000D03*
%TD*%
M02*
