%TF.GenerationSoftware,KiCad,Pcbnew,(6.0.11)*%
%TF.CreationDate,2023-05-25T03:36:55+07:00*%
%TF.ProjectId,RELAY_SHEILD_V2,52454c41-595f-4534-9845-494c445f5632,rev?*%
%TF.SameCoordinates,Original*%
%TF.FileFunction,Paste,Bot*%
%TF.FilePolarity,Positive*%
%FSLAX46Y46*%
G04 Gerber Fmt 4.6, Leading zero omitted, Abs format (unit mm)*
G04 Created by KiCad (PCBNEW (6.0.11)) date 2023-05-25 03:36:55*
%MOMM*%
%LPD*%
G01*
G04 APERTURE LIST*
G04 Aperture macros list*
%AMRoundRect*
0 Rectangle with rounded corners*
0 $1 Rounding radius*
0 $2 $3 $4 $5 $6 $7 $8 $9 X,Y pos of 4 corners*
0 Add a 4 corners polygon primitive as box body*
4,1,4,$2,$3,$4,$5,$6,$7,$8,$9,$2,$3,0*
0 Add four circle primitives for the rounded corners*
1,1,$1+$1,$2,$3*
1,1,$1+$1,$4,$5*
1,1,$1+$1,$6,$7*
1,1,$1+$1,$8,$9*
0 Add four rect primitives between the rounded corners*
20,1,$1+$1,$2,$3,$4,$5,0*
20,1,$1+$1,$4,$5,$6,$7,0*
20,1,$1+$1,$6,$7,$8,$9,0*
20,1,$1+$1,$8,$9,$2,$3,0*%
G04 Aperture macros list end*
%ADD10RoundRect,0.250000X-0.312500X-0.625000X0.312500X-0.625000X0.312500X0.625000X-0.312500X0.625000X0*%
%ADD11RoundRect,0.150000X0.587500X0.150000X-0.587500X0.150000X-0.587500X-0.150000X0.587500X-0.150000X0*%
%ADD12R,1.100000X1.500000*%
%ADD13RoundRect,0.250000X-0.650000X0.325000X-0.650000X-0.325000X0.650000X-0.325000X0.650000X0.325000X0*%
%ADD14R,1.600000X1.600000*%
%ADD15RoundRect,0.250000X0.312500X0.625000X-0.312500X0.625000X-0.312500X-0.625000X0.312500X-0.625000X0*%
%ADD16R,1.100000X1.100000*%
%ADD17RoundRect,0.250000X1.450000X-0.312500X1.450000X0.312500X-1.450000X0.312500X-1.450000X-0.312500X0*%
%ADD18R,3.150000X1.960000*%
%ADD19RoundRect,0.250000X-1.750000X-1.000000X1.750000X-1.000000X1.750000X1.000000X-1.750000X1.000000X0*%
%ADD20R,1.120000X2.160000*%
%ADD21R,3.100000X3.200000*%
%ADD22R,1.500000X1.600000*%
G04 APERTURE END LIST*
D10*
%TO.C,R5*%
X63742500Y-63631000D03*
X66667500Y-63631000D03*
%TD*%
D11*
%TO.C,Q8*%
X189950000Y-59695000D03*
X189950000Y-61595000D03*
X188075000Y-60645000D03*
%TD*%
D10*
%TO.C,R9*%
X79495000Y-50116000D03*
X82420000Y-50116000D03*
%TD*%
D12*
%TO.C,SW9*%
X194412500Y-68645000D03*
X194412500Y-59745000D03*
%TD*%
D13*
%TO.C,C1*%
X34987738Y-57407738D03*
X34987738Y-60357738D03*
%TD*%
D10*
%TO.C,R6*%
X54630000Y-50116000D03*
X57555000Y-50116000D03*
%TD*%
D14*
%TO.C,U6*%
X109535000Y-61375000D03*
X109535000Y-63915000D03*
X101915000Y-63915000D03*
X101915000Y-61375000D03*
%TD*%
D11*
%TO.C,Q5*%
X165130000Y-59705000D03*
X165130000Y-61605000D03*
X163255000Y-60655000D03*
%TD*%
D15*
%TO.C,R13*%
X132095000Y-66895000D03*
X129170000Y-66895000D03*
%TD*%
D14*
%TO.C,U8*%
X159260000Y-61385000D03*
X159260000Y-63925000D03*
X151640000Y-63925000D03*
X151640000Y-61385000D03*
%TD*%
D16*
%TO.C,D3*%
X54817500Y-46381000D03*
X57617500Y-46381000D03*
%TD*%
D15*
%TO.C,R7*%
X82495000Y-66881000D03*
X79570000Y-66881000D03*
%TD*%
D11*
%TO.C,Q7*%
X214750000Y-59695000D03*
X214750000Y-61595000D03*
X212875000Y-60645000D03*
%TD*%
%TO.C,Q1*%
X65855000Y-59681000D03*
X65855000Y-61581000D03*
X63980000Y-60631000D03*
%TD*%
D10*
%TO.C,R11*%
X113292500Y-63645000D03*
X116217500Y-63645000D03*
%TD*%
D13*
%TO.C,C6*%
X44705000Y-68775000D03*
X44705000Y-71725000D03*
%TD*%
D12*
%TO.C,SW3*%
X95182500Y-68631000D03*
X95182500Y-59731000D03*
%TD*%
D13*
%TO.C,C2*%
X44787738Y-57332738D03*
X44787738Y-60282738D03*
%TD*%
D12*
%TO.C,SW7*%
X244012500Y-68583125D03*
X244012500Y-59683125D03*
%TD*%
%TO.C,SW2*%
X70317500Y-68631000D03*
X70317500Y-59731000D03*
%TD*%
D17*
%TO.C,F3*%
X22600000Y-76912500D03*
X22600000Y-72637500D03*
%TD*%
D10*
%TO.C,R21*%
X228325000Y-50068125D03*
X231250000Y-50068125D03*
%TD*%
D12*
%TO.C,SW5*%
X144782500Y-68645000D03*
X144782500Y-59745000D03*
%TD*%
D16*
%TO.C,D13*%
X228512500Y-46333125D03*
X231312500Y-46333125D03*
%TD*%
D10*
%TO.C,R8*%
X88607500Y-63631000D03*
X91532500Y-63631000D03*
%TD*%
%TO.C,R14*%
X138207500Y-63645000D03*
X141132500Y-63645000D03*
%TD*%
%TO.C,R18*%
X153905000Y-50140000D03*
X156830000Y-50140000D03*
%TD*%
D11*
%TO.C,Q3*%
X115405000Y-59695000D03*
X115405000Y-61595000D03*
X113530000Y-60645000D03*
%TD*%
D14*
%TO.C,U5*%
X84850000Y-61361000D03*
X84850000Y-63901000D03*
X77230000Y-63901000D03*
X77230000Y-61361000D03*
%TD*%
D16*
%TO.C,D9*%
X129282500Y-46395000D03*
X132082500Y-46395000D03*
%TD*%
D14*
%TO.C,U11*%
X184080000Y-61375000D03*
X184080000Y-63915000D03*
X176460000Y-63915000D03*
X176460000Y-61375000D03*
%TD*%
D15*
%TO.C,R4*%
X57630000Y-66881000D03*
X54705000Y-66881000D03*
%TD*%
D10*
%TO.C,R12*%
X104180000Y-50130000D03*
X107105000Y-50130000D03*
%TD*%
%TO.C,R26*%
X187837500Y-63645000D03*
X190762500Y-63645000D03*
%TD*%
%TO.C,R27*%
X178725000Y-50130000D03*
X181650000Y-50130000D03*
%TD*%
D14*
%TO.C,U7*%
X134450000Y-61375000D03*
X134450000Y-63915000D03*
X126830000Y-63915000D03*
X126830000Y-61375000D03*
%TD*%
D18*
%TO.C,F1*%
X34350000Y-27070000D03*
X34350000Y-31980000D03*
%TD*%
D16*
%TO.C,D15*%
X203712500Y-46395000D03*
X206512500Y-46395000D03*
%TD*%
D19*
%TO.C,C5*%
X22600000Y-65275000D03*
X30600000Y-65275000D03*
%TD*%
D20*
%TO.C,SW1*%
X44837500Y-53210000D03*
X42297500Y-53210000D03*
X42297500Y-46480000D03*
X44837500Y-46480000D03*
%TD*%
D15*
%TO.C,R22*%
X206525000Y-66895000D03*
X203600000Y-66895000D03*
%TD*%
D16*
%TO.C,D5*%
X79682500Y-46381000D03*
X82482500Y-46381000D03*
%TD*%
D12*
%TO.C,SW8*%
X219212500Y-68645000D03*
X219212500Y-59745000D03*
%TD*%
D11*
%TO.C,Q4*%
X140320000Y-59695000D03*
X140320000Y-61595000D03*
X138445000Y-60645000D03*
%TD*%
D15*
%TO.C,R25*%
X181725000Y-66895000D03*
X178800000Y-66895000D03*
%TD*%
D21*
%TO.C,U2*%
X41505000Y-73150000D03*
X38105000Y-76650000D03*
X38105000Y-73150000D03*
X41505000Y-76650000D03*
D22*
X37505000Y-68750000D03*
X42105000Y-68750000D03*
%TD*%
D12*
%TO.C,SW6*%
X169592500Y-68655000D03*
X169592500Y-59755000D03*
%TD*%
D16*
%TO.C,D17*%
X178912500Y-46395000D03*
X181712500Y-46395000D03*
%TD*%
D13*
%TO.C,C4*%
X34905000Y-68775000D03*
X34905000Y-71725000D03*
%TD*%
D21*
%TO.C,U1*%
X41487738Y-61767262D03*
X38087738Y-65267262D03*
X38087738Y-61767262D03*
X41487738Y-65267262D03*
D22*
X37487738Y-57367262D03*
X42087738Y-57367262D03*
%TD*%
D15*
%TO.C,R10*%
X107180000Y-66895000D03*
X104255000Y-66895000D03*
%TD*%
D10*
%TO.C,R23*%
X212637500Y-63645000D03*
X215562500Y-63645000D03*
%TD*%
%TO.C,R24*%
X203525000Y-50130000D03*
X206450000Y-50130000D03*
%TD*%
D12*
%TO.C,SW4*%
X119867500Y-68645000D03*
X119867500Y-59745000D03*
%TD*%
D11*
%TO.C,Q2*%
X90720000Y-59681000D03*
X90720000Y-61581000D03*
X88845000Y-60631000D03*
%TD*%
%TO.C,Q6*%
X239550000Y-59633125D03*
X239550000Y-61533125D03*
X237675000Y-60583125D03*
%TD*%
D10*
%TO.C,R17*%
X163017500Y-63655000D03*
X165942500Y-63655000D03*
%TD*%
D15*
%TO.C,R19*%
X231325000Y-66833125D03*
X228400000Y-66833125D03*
%TD*%
D10*
%TO.C,R20*%
X237437500Y-63583125D03*
X240362500Y-63583125D03*
%TD*%
D16*
%TO.C,D11*%
X154092500Y-46405000D03*
X156892500Y-46405000D03*
%TD*%
D14*
%TO.C,U4*%
X59985000Y-61361000D03*
X59985000Y-63901000D03*
X52365000Y-63901000D03*
X52365000Y-61361000D03*
%TD*%
%TO.C,U9*%
X233680000Y-61313125D03*
X233680000Y-63853125D03*
X226060000Y-63853125D03*
X226060000Y-61313125D03*
%TD*%
D10*
%TO.C,R15*%
X129095000Y-50130000D03*
X132020000Y-50130000D03*
%TD*%
D14*
%TO.C,U10*%
X208880000Y-61375000D03*
X208880000Y-63915000D03*
X201260000Y-63915000D03*
X201260000Y-61375000D03*
%TD*%
D16*
%TO.C,D7*%
X104367500Y-46395000D03*
X107167500Y-46395000D03*
%TD*%
D15*
%TO.C,R16*%
X156905000Y-66905000D03*
X153980000Y-66905000D03*
%TD*%
M02*
