%TF.GenerationSoftware,KiCad,Pcbnew,(6.0.11)*%
%TF.CreationDate,2023-05-25T03:36:55+07:00*%
%TF.ProjectId,RELAY_SHEILD_V2,52454c41-595f-4534-9845-494c445f5632,rev?*%
%TF.SameCoordinates,Original*%
%TF.FileFunction,Paste,Top*%
%TF.FilePolarity,Positive*%
%FSLAX46Y46*%
G04 Gerber Fmt 4.6, Leading zero omitted, Abs format (unit mm)*
G04 Created by KiCad (PCBNEW (6.0.11)) date 2023-05-25 03:36:55*
%MOMM*%
%LPD*%
G01*
G04 APERTURE LIST*
G04 Aperture macros list*
%AMRoundRect*
0 Rectangle with rounded corners*
0 $1 Rounding radius*
0 $2 $3 $4 $5 $6 $7 $8 $9 X,Y pos of 4 corners*
0 Add a 4 corners polygon primitive as box body*
4,1,4,$2,$3,$4,$5,$6,$7,$8,$9,$2,$3,0*
0 Add four circle primitives for the rounded corners*
1,1,$1+$1,$2,$3*
1,1,$1+$1,$4,$5*
1,1,$1+$1,$6,$7*
1,1,$1+$1,$8,$9*
0 Add four rect primitives between the rounded corners*
20,1,$1+$1,$2,$3,$4,$5,0*
20,1,$1+$1,$4,$5,$6,$7,0*
20,1,$1+$1,$6,$7,$8,$9,0*
20,1,$1+$1,$8,$9,$2,$3,0*%
G04 Aperture macros list end*
%ADD10R,3.150000X1.000000*%
%ADD11RoundRect,0.250000X0.312500X0.625000X-0.312500X0.625000X-0.312500X-0.625000X0.312500X-0.625000X0*%
%ADD12R,1.000000X3.150000*%
%ADD13R,3.000000X1.000000*%
%ADD14RoundRect,0.250000X-0.312500X-0.625000X0.312500X-0.625000X0.312500X0.625000X-0.312500X0.625000X0*%
%ADD15RoundRect,0.250000X0.375000X0.625000X-0.375000X0.625000X-0.375000X-0.625000X0.375000X-0.625000X0*%
G04 APERTURE END LIST*
D10*
%TO.C,J10*%
X218675000Y-75720000D03*
X223725000Y-75720000D03*
X218675000Y-78260000D03*
X223725000Y-78260000D03*
X218675000Y-80800000D03*
X223725000Y-80800000D03*
X218675000Y-83340000D03*
X223725000Y-83340000D03*
X218675000Y-85880000D03*
X223725000Y-85880000D03*
%TD*%
%TO.C,J8*%
X195075000Y-75720000D03*
X200125000Y-75720000D03*
X195075000Y-78260000D03*
X200125000Y-78260000D03*
X195075000Y-80800000D03*
X200125000Y-80800000D03*
X195075000Y-83340000D03*
X200125000Y-83340000D03*
X195075000Y-85880000D03*
X200125000Y-85880000D03*
%TD*%
D11*
%TO.C,R3*%
X46500000Y-52320000D03*
X43575000Y-52320000D03*
%TD*%
D12*
%TO.C,J16*%
X311130000Y-24500000D03*
X311130000Y-29550000D03*
X308590000Y-24500000D03*
X308590000Y-29550000D03*
X306050000Y-24500000D03*
X306050000Y-29550000D03*
X303510000Y-24500000D03*
X303510000Y-29550000D03*
X300970000Y-24500000D03*
X300970000Y-29550000D03*
X298430000Y-24500000D03*
X298430000Y-29550000D03*
X295890000Y-24500000D03*
X295890000Y-29550000D03*
X293350000Y-24500000D03*
X293350000Y-29550000D03*
%TD*%
D10*
%TO.C,J9*%
X206875000Y-75720000D03*
X211925000Y-75720000D03*
X206875000Y-78260000D03*
X211925000Y-78260000D03*
X206875000Y-80800000D03*
X211925000Y-80800000D03*
X206875000Y-83340000D03*
X211925000Y-83340000D03*
X206875000Y-85880000D03*
X211925000Y-85880000D03*
%TD*%
D12*
%TO.C,J11*%
X159860000Y-82525000D03*
X159860000Y-77475000D03*
X162400000Y-82525000D03*
X162400000Y-77475000D03*
X164940000Y-82525000D03*
X164940000Y-77475000D03*
X167480000Y-82525000D03*
X167480000Y-77475000D03*
X170020000Y-82525000D03*
X170020000Y-77475000D03*
X172560000Y-82525000D03*
X172560000Y-77475000D03*
X175100000Y-82525000D03*
X175100000Y-77475000D03*
X177640000Y-82525000D03*
X177640000Y-77475000D03*
%TD*%
D13*
%TO.C,J3*%
X53680000Y-72940000D03*
X48640000Y-72940000D03*
X53680000Y-75480000D03*
X48640000Y-75480000D03*
X53680000Y-78020000D03*
X48640000Y-78020000D03*
X53680000Y-80560000D03*
X48640000Y-80560000D03*
%TD*%
D12*
%TO.C,J12*%
X229410000Y-82525000D03*
X229410000Y-77475000D03*
X231950000Y-82525000D03*
X231950000Y-77475000D03*
X234490000Y-82525000D03*
X234490000Y-77475000D03*
X237030000Y-82525000D03*
X237030000Y-77475000D03*
X239570000Y-82525000D03*
X239570000Y-77475000D03*
X242110000Y-82525000D03*
X242110000Y-77475000D03*
X244650000Y-82525000D03*
X244650000Y-77475000D03*
X247190000Y-82525000D03*
X247190000Y-77475000D03*
%TD*%
D14*
%TO.C,R2*%
X42287500Y-80550000D03*
X45212500Y-80550000D03*
%TD*%
D15*
%TO.C,D1*%
X46437500Y-49720000D03*
X43637500Y-49720000D03*
%TD*%
D10*
%TO.C,J7*%
X183225000Y-75720000D03*
X188275000Y-75720000D03*
X183225000Y-78260000D03*
X188275000Y-78260000D03*
X183225000Y-80800000D03*
X188275000Y-80800000D03*
X183225000Y-83340000D03*
X188275000Y-83340000D03*
X183225000Y-85880000D03*
X188275000Y-85880000D03*
%TD*%
D13*
%TO.C,J2*%
X72270000Y-72940000D03*
X67230000Y-72940000D03*
X72270000Y-75480000D03*
X67230000Y-75480000D03*
X72270000Y-78020000D03*
X67230000Y-78020000D03*
X72270000Y-80560000D03*
X67230000Y-80560000D03*
%TD*%
%TO.C,J5*%
X63070000Y-72940000D03*
X58030000Y-72940000D03*
X63070000Y-75480000D03*
X58030000Y-75480000D03*
X63070000Y-78020000D03*
X58030000Y-78020000D03*
X63070000Y-80560000D03*
X58030000Y-80560000D03*
%TD*%
%TO.C,J4*%
X81470000Y-72940000D03*
X76430000Y-72940000D03*
X81470000Y-75480000D03*
X76430000Y-75480000D03*
X81470000Y-78020000D03*
X76430000Y-78020000D03*
X81470000Y-80560000D03*
X76430000Y-80560000D03*
%TD*%
D14*
%TO.C,R1*%
X42287500Y-76750000D03*
X45212500Y-76750000D03*
%TD*%
D12*
%TO.C,J14*%
X303540000Y-41475000D03*
X303540000Y-36425000D03*
X306080000Y-41475000D03*
X306080000Y-36425000D03*
X308620000Y-41475000D03*
X308620000Y-36425000D03*
X311160000Y-41475000D03*
X311160000Y-36425000D03*
%TD*%
M02*
