%TF.GenerationSoftware,KiCad,Pcbnew,(6.0.11)*%
%TF.CreationDate,2023-05-25T03:36:55+07:00*%
%TF.ProjectId,RELAY_SHEILD_V2,52454c41-595f-4534-9845-494c445f5632,rev?*%
%TF.SameCoordinates,Original*%
%TF.FileFunction,Soldermask,Top*%
%TF.FilePolarity,Negative*%
%FSLAX46Y46*%
G04 Gerber Fmt 4.6, Leading zero omitted, Abs format (unit mm)*
G04 Created by KiCad (PCBNEW (6.0.11)) date 2023-05-25 03:36:55*
%MOMM*%
%LPD*%
G01*
G04 APERTURE LIST*
G04 Aperture macros list*
%AMRoundRect*
0 Rectangle with rounded corners*
0 $1 Rounding radius*
0 $2 $3 $4 $5 $6 $7 $8 $9 X,Y pos of 4 corners*
0 Add a 4 corners polygon primitive as box body*
4,1,4,$2,$3,$4,$5,$6,$7,$8,$9,$2,$3,0*
0 Add four circle primitives for the rounded corners*
1,1,$1+$1,$2,$3*
1,1,$1+$1,$4,$5*
1,1,$1+$1,$6,$7*
1,1,$1+$1,$8,$9*
0 Add four rect primitives between the rounded corners*
20,1,$1+$1,$2,$3,$4,$5,0*
20,1,$1+$1,$4,$5,$6,$7,0*
20,1,$1+$1,$6,$7,$8,$9,0*
20,1,$1+$1,$8,$9,$2,$3,0*%
G04 Aperture macros list end*
%ADD10C,0.250000*%
%ADD11R,2.300000X2.300000*%
%ADD12C,2.300000*%
%ADD13R,1.700000X1.700000*%
%ADD14O,1.700000X1.700000*%
%ADD15C,1.524000*%
%ADD16R,1.800000X1.800000*%
%ADD17C,1.800000*%
%ADD18C,2.700000*%
%ADD19C,3.000000*%
%ADD20R,3.150000X1.000000*%
%ADD21R,2.100000X2.100000*%
%ADD22C,2.100000*%
%ADD23RoundRect,0.250000X0.312500X0.625000X-0.312500X0.625000X-0.312500X-0.625000X0.312500X-0.625000X0*%
%ADD24C,2.010000*%
%ADD25R,1.000000X3.150000*%
%ADD26R,2.000000X2.300000*%
%ADD27R,3.000000X1.000000*%
%ADD28RoundRect,0.250000X-0.312500X-0.625000X0.312500X-0.625000X0.312500X0.625000X-0.312500X0.625000X0*%
%ADD29C,2.400000*%
%ADD30RoundRect,0.250000X0.375000X0.625000X-0.375000X0.625000X-0.375000X-0.625000X0.375000X-0.625000X0*%
%ADD31R,1.600000X1.600000*%
%ADD32O,1.600000X1.600000*%
G04 APERTURE END LIST*
D10*
X73178055Y-61060000D02*
G75*
G03*
X73178055Y-61060000I-360555J0D01*
G01*
X147578055Y-61100000D02*
G75*
G03*
X147578055Y-61100000I-360555J0D01*
G01*
X49378055Y-61100000D02*
G75*
G03*
X49378055Y-61100000I-360555J0D01*
G01*
X211260555Y-63750000D02*
G75*
G03*
X211260555Y-63750000I-360555J0D01*
G01*
X97618055Y-59714195D02*
G75*
G03*
X97618055Y-59714195I-360555J0D01*
G01*
X251610555Y-32250000D02*
G75*
G03*
X251610555Y-32250000I-360555J0D01*
G01*
X98978055Y-61100000D02*
G75*
G03*
X98978055Y-61100000I-360555J0D01*
G01*
X86950000Y-72950000D02*
G75*
G03*
X86950000Y-72950000I-360555J0D01*
G01*
X227500000Y-86000000D02*
G75*
G03*
X227500000Y-86000000I-360555J0D01*
G01*
X45128055Y-55245000D02*
G75*
G03*
X45128055Y-55245000I-360555J0D01*
G01*
X289110555Y-76250000D02*
G75*
G03*
X289110555Y-76250000I-360555J0D01*
G01*
X111921110Y-63739445D02*
G75*
G03*
X111921110Y-63739445I-360555J0D01*
G01*
X48228055Y-59645000D02*
G75*
G03*
X48228055Y-59645000I-360555J0D01*
G01*
X282640555Y-31180000D02*
G75*
G03*
X282640555Y-31180000I-360555J0D01*
G01*
X196848055Y-59728195D02*
G75*
G03*
X196848055Y-59728195I-360555J0D01*
G01*
X292360555Y-47539445D02*
G75*
G03*
X292360555Y-47539445I-360555J0D01*
G01*
X158560555Y-76039445D02*
G75*
G03*
X158560555Y-76039445I-360555J0D01*
G01*
X123778055Y-61100000D02*
G75*
G03*
X123778055Y-61100000I-360555J0D01*
G01*
X221648055Y-59728195D02*
G75*
G03*
X221648055Y-59728195I-360555J0D01*
G01*
X247360555Y-61600000D02*
G75*
G03*
X247360555Y-61600000I-360555J0D01*
G01*
X172378055Y-61100000D02*
G75*
G03*
X172378055Y-61100000I-360555J0D01*
G01*
X42710555Y-59250000D02*
G75*
G03*
X42710555Y-59250000I-360555J0D01*
G01*
X256560555Y-71700000D02*
G75*
G03*
X256560555Y-71700000I-360555J0D01*
G01*
X252900000Y-70500000D02*
G75*
G03*
X252900000Y-70500000I-360555J0D01*
G01*
X292260555Y-33500000D02*
G75*
G03*
X292260555Y-33500000I-360555J0D01*
G01*
X293610555Y-74750000D02*
G75*
G03*
X293610555Y-74750000I-360555J0D01*
G01*
X93518055Y-59674750D02*
G75*
G03*
X93518055Y-59674750I-360555J0D01*
G01*
X256010555Y-32250000D02*
G75*
G03*
X256010555Y-32250000I-360555J0D01*
G01*
X172028055Y-59738195D02*
G75*
G03*
X172028055Y-59738195I-360555J0D01*
G01*
X280400000Y-32400000D02*
G75*
G03*
X280400000Y-32400000I-360555J0D01*
G01*
X249960555Y-63400000D02*
G75*
G03*
X249960555Y-63400000I-360555J0D01*
G01*
X86910555Y-75550000D02*
G75*
G03*
X86910555Y-75550000I-360555J0D01*
G01*
X161700000Y-63739445D02*
G75*
G03*
X161700000Y-63739445I-360555J0D01*
G01*
X122778055Y-61100000D02*
G75*
G03*
X122778055Y-61100000I-360555J0D01*
G01*
X244660555Y-70500000D02*
G75*
G03*
X244660555Y-70500000I-360555J0D01*
G01*
X122303055Y-59728195D02*
G75*
G03*
X122303055Y-59728195I-360555J0D01*
G01*
X236110555Y-63750000D02*
G75*
G03*
X236110555Y-63750000I-360555J0D01*
G01*
X271798055Y-34460000D02*
G75*
G03*
X271798055Y-34460000I-360555J0D01*
G01*
X217548055Y-59688750D02*
G75*
G03*
X217548055Y-59688750I-360555J0D01*
G01*
X136860555Y-63739445D02*
G75*
G03*
X136860555Y-63739445I-360555J0D01*
G01*
X293610555Y-76250000D02*
G75*
G03*
X293610555Y-76250000I-360555J0D01*
G01*
X45128055Y-62445000D02*
G75*
G03*
X45128055Y-62445000I-360555J0D01*
G01*
X173378055Y-61100000D02*
G75*
G03*
X173378055Y-61100000I-360555J0D01*
G01*
X254960555Y-60500000D02*
G75*
G03*
X254960555Y-60500000I-360555J0D01*
G01*
X273800000Y-32400000D02*
G75*
G03*
X273800000Y-32400000I-360555J0D01*
G01*
X222978055Y-61100000D02*
G75*
G03*
X222978055Y-61100000I-360555J0D01*
G01*
X97978055Y-61100000D02*
G75*
G03*
X97978055Y-61100000I-360555J0D01*
G01*
X147218055Y-59728195D02*
G75*
G03*
X147218055Y-59728195I-360555J0D01*
G01*
X273798055Y-28299445D02*
G75*
G03*
X273798055Y-28299445I-360555J0D01*
G01*
X68653055Y-59674750D02*
G75*
G03*
X68653055Y-59674750I-360555J0D01*
G01*
X294798055Y-34460000D02*
G75*
G03*
X294798055Y-34460000I-360555J0D01*
G01*
X45510555Y-74450000D02*
G75*
G03*
X45510555Y-74450000I-360555J0D01*
G01*
X192748055Y-59688750D02*
G75*
G03*
X192748055Y-59688750I-360555J0D01*
G01*
X46928055Y-57284445D02*
G75*
G03*
X46928055Y-57284445I-360555J0D01*
G01*
X276398055Y-28299445D02*
G75*
G03*
X276398055Y-28299445I-360555J0D01*
G01*
X72753055Y-59714195D02*
G75*
G03*
X72753055Y-59714195I-360555J0D01*
G01*
X198178055Y-61100000D02*
G75*
G03*
X198178055Y-61100000I-360555J0D01*
G01*
X186510555Y-63739445D02*
G75*
G03*
X186510555Y-63739445I-360555J0D01*
G01*
X280998055Y-64499445D02*
G75*
G03*
X280998055Y-64499445I-360555J0D01*
G01*
X46928055Y-62445000D02*
G75*
G03*
X46928055Y-62445000I-360555J0D01*
G01*
X87010555Y-77950000D02*
G75*
G03*
X87010555Y-77950000I-360555J0D01*
G01*
X87260555Y-63739445D02*
G75*
G03*
X87260555Y-63739445I-360555J0D01*
G01*
X203860555Y-83939445D02*
G75*
G03*
X203860555Y-83939445I-360555J0D01*
G01*
X118203055Y-59688750D02*
G75*
G03*
X118203055Y-59688750I-360555J0D01*
G01*
X289110555Y-74750000D02*
G75*
G03*
X289110555Y-74750000I-360555J0D01*
G01*
X256960555Y-56400000D02*
G75*
G03*
X256960555Y-56400000I-360555J0D01*
G01*
X242348055Y-59626875D02*
G75*
G03*
X242348055Y-59626875I-360555J0D01*
G01*
X62400000Y-63739445D02*
G75*
G03*
X62400000Y-63739445I-360555J0D01*
G01*
X143118055Y-59688750D02*
G75*
G03*
X143118055Y-59688750I-360555J0D01*
G01*
X197178055Y-61100000D02*
G75*
G03*
X197178055Y-61100000I-360555J0D01*
G01*
X74178055Y-61080000D02*
G75*
G03*
X74178055Y-61080000I-360555J0D01*
G01*
X246448055Y-59666320D02*
G75*
G03*
X246448055Y-59666320I-360555J0D01*
G01*
X291198055Y-64660000D02*
G75*
G03*
X291198055Y-64660000I-360555J0D01*
G01*
X87010555Y-80550000D02*
G75*
G03*
X87010555Y-80550000I-360555J0D01*
G01*
X148578055Y-61100000D02*
G75*
G03*
X148578055Y-61100000I-360555J0D01*
G01*
X221978055Y-61100000D02*
G75*
G03*
X221978055Y-61100000I-360555J0D01*
G01*
X245900000Y-71700000D02*
G75*
G03*
X245900000Y-71700000I-360555J0D01*
G01*
X167928055Y-59698750D02*
G75*
G03*
X167928055Y-59698750I-360555J0D01*
G01*
D11*
%TO.C,K4*%
X134357500Y-50845000D03*
D12*
X134357500Y-40685000D03*
X134357500Y-33065000D03*
X126737500Y-35605000D03*
X126737500Y-50845000D03*
%TD*%
D13*
%TO.C,J18*%
X253077500Y-85600000D03*
D14*
X253077500Y-83060000D03*
X255617500Y-85600000D03*
X255617500Y-83060000D03*
X258157500Y-85600000D03*
X258157500Y-83060000D03*
X260697500Y-85600000D03*
X260697500Y-83060000D03*
X263237500Y-85600000D03*
X263237500Y-83060000D03*
X265777500Y-85600000D03*
X265777500Y-83060000D03*
X268317500Y-85600000D03*
X268317500Y-83060000D03*
X270857500Y-85600000D03*
X270857500Y-83060000D03*
%TD*%
D15*
%TO.C,U3*%
X258957500Y-65690000D03*
X261497500Y-65690000D03*
X264037500Y-65690000D03*
X266577500Y-65690000D03*
X269117500Y-65690000D03*
X271657500Y-65690000D03*
X274197500Y-65690000D03*
X276737500Y-65690000D03*
X279277500Y-65690000D03*
X281817500Y-65690000D03*
X284357500Y-65690000D03*
X286897500Y-65690000D03*
X289437500Y-65690000D03*
X291977500Y-65690000D03*
X294517500Y-65690000D03*
X294517500Y-42830000D03*
X291977500Y-42830000D03*
X289437500Y-42830000D03*
X286897500Y-42830000D03*
X284357500Y-42830000D03*
X281817500Y-42830000D03*
X279277500Y-42830000D03*
X276737500Y-42830000D03*
X274197500Y-42830000D03*
X271657500Y-42830000D03*
X269117500Y-42830000D03*
X266577500Y-42830000D03*
X264037500Y-42830000D03*
X261497500Y-42830000D03*
X258957500Y-42830000D03*
%TD*%
D16*
%TO.C,D14*%
X208797500Y-56480000D03*
D17*
X206257500Y-56480000D03*
%TD*%
D18*
%TO.C,F10*%
X217562500Y-43945000D03*
D19*
X217562500Y-55195000D03*
X217562500Y-32695000D03*
%TD*%
D13*
%TO.C,J22*%
X52167500Y-54946000D03*
D14*
X52167500Y-57486000D03*
%TD*%
D16*
%TO.C,D8*%
X134367500Y-56480000D03*
D17*
X131827500Y-56480000D03*
%TD*%
D20*
%TO.C,J10*%
X218675000Y-75720000D03*
X223725000Y-75720000D03*
X218675000Y-78260000D03*
X223725000Y-78260000D03*
X218675000Y-80800000D03*
X223725000Y-80800000D03*
X218675000Y-83340000D03*
X223725000Y-83340000D03*
X218675000Y-85880000D03*
X223725000Y-85880000D03*
%TD*%
D18*
%TO.C,F7*%
X143132500Y-43945000D03*
D19*
X143132500Y-55195000D03*
X143132500Y-32695000D03*
%TD*%
D18*
%TO.C,F5*%
X93532500Y-43931000D03*
D19*
X93532500Y-55181000D03*
X93532500Y-32681000D03*
%TD*%
D11*
%TO.C,K7*%
X208787500Y-50845000D03*
D12*
X208787500Y-40685000D03*
X208787500Y-33065000D03*
X201167500Y-35605000D03*
X201167500Y-50845000D03*
%TD*%
D16*
%TO.C,D16*%
X183997500Y-56480000D03*
D17*
X181457500Y-56480000D03*
%TD*%
D11*
%TO.C,K6*%
X233587500Y-50783125D03*
D12*
X233587500Y-40623125D03*
X233587500Y-33003125D03*
X225967500Y-35543125D03*
X225967500Y-50783125D03*
%TD*%
D21*
%TO.C,J13*%
X24305000Y-25950000D03*
D22*
X29385000Y-25950000D03*
%TD*%
D20*
%TO.C,J8*%
X195075000Y-75720000D03*
X200125000Y-75720000D03*
X195075000Y-78260000D03*
X200125000Y-78260000D03*
X195075000Y-80800000D03*
X200125000Y-80800000D03*
X195075000Y-83340000D03*
X200125000Y-83340000D03*
X195075000Y-85880000D03*
X200125000Y-85880000D03*
%TD*%
D18*
%TO.C,F9*%
X242362500Y-43883125D03*
D19*
X242362500Y-55133125D03*
X242362500Y-32633125D03*
%TD*%
D13*
%TO.C,J21*%
X294417500Y-36920000D03*
D14*
X294417500Y-39460000D03*
X291877500Y-36920000D03*
X291877500Y-39460000D03*
X289337500Y-36920000D03*
X289337500Y-39460000D03*
X286797500Y-36920000D03*
X286797500Y-39460000D03*
X284257500Y-36920000D03*
X284257500Y-39460000D03*
X281717500Y-36920000D03*
X281717500Y-39460000D03*
X279177500Y-36920000D03*
X279177500Y-39460000D03*
X276637500Y-36920000D03*
X276637500Y-39460000D03*
X274097500Y-36920000D03*
X274097500Y-39460000D03*
X271557500Y-36920000D03*
X271557500Y-39460000D03*
X269017500Y-36920000D03*
X269017500Y-39460000D03*
X266477500Y-36920000D03*
X266477500Y-39460000D03*
X263937500Y-36920000D03*
X263937500Y-39460000D03*
X261397500Y-36920000D03*
X261397500Y-39460000D03*
X258857500Y-36920000D03*
X258857500Y-39460000D03*
%TD*%
D13*
%TO.C,J28*%
X126632500Y-54960000D03*
D14*
X126632500Y-57500000D03*
%TD*%
D23*
%TO.C,R3*%
X46500000Y-52320000D03*
X43575000Y-52320000D03*
%TD*%
D13*
%TO.C,J34*%
X201062500Y-54960000D03*
D14*
X201062500Y-57500000D03*
%TD*%
D11*
%TO.C,K1*%
X59892500Y-50831000D03*
D12*
X59892500Y-40671000D03*
X59892500Y-33051000D03*
X52272500Y-35591000D03*
X52272500Y-50831000D03*
%TD*%
D13*
%TO.C,J32*%
X225862500Y-54898125D03*
D14*
X225862500Y-57438125D03*
%TD*%
D11*
%TO.C,K3*%
X109442500Y-50845000D03*
D12*
X109442500Y-40685000D03*
X109442500Y-33065000D03*
X101822500Y-35605000D03*
X101822500Y-50845000D03*
%TD*%
D13*
%TO.C,J36*%
X176262500Y-54960000D03*
D14*
X176262500Y-57500000D03*
%TD*%
D24*
%TO.C,F2*%
X39200000Y-31975000D03*
X38000000Y-37075000D03*
%TD*%
D21*
%TO.C,J29*%
X129297500Y-26040000D03*
D22*
X134377500Y-26040000D03*
X139457500Y-26040000D03*
%TD*%
D25*
%TO.C,J16*%
X311130000Y-24500000D03*
X311130000Y-29550000D03*
X308590000Y-24500000D03*
X308590000Y-29550000D03*
X306050000Y-24500000D03*
X306050000Y-29550000D03*
X303510000Y-24500000D03*
X303510000Y-29550000D03*
X300970000Y-24500000D03*
X300970000Y-29550000D03*
X298430000Y-24500000D03*
X298430000Y-29550000D03*
X295890000Y-24500000D03*
X295890000Y-29550000D03*
X293350000Y-24500000D03*
X293350000Y-29550000D03*
%TD*%
D18*
%TO.C,F6*%
X118217500Y-43945000D03*
D19*
X118217500Y-55195000D03*
X118217500Y-32695000D03*
%TD*%
D17*
%TO.C,RV1*%
X31850000Y-37025000D03*
X24350000Y-33025000D03*
%TD*%
D11*
%TO.C,K8*%
X183987500Y-50845000D03*
D12*
X183987500Y-40685000D03*
X183987500Y-33065000D03*
X176367500Y-35605000D03*
X176367500Y-50845000D03*
%TD*%
D17*
%TO.C,D6*%
X106912500Y-56480000D03*
D16*
X109452500Y-56480000D03*
%TD*%
D18*
%TO.C,F8*%
X167942500Y-43955000D03*
D19*
X167942500Y-55205000D03*
X167942500Y-32705000D03*
%TD*%
D17*
%TO.C,D4*%
X82227500Y-56466000D03*
D16*
X84767500Y-56466000D03*
%TD*%
D21*
%TO.C,J33*%
X228527500Y-25978125D03*
D22*
X233607500Y-25978125D03*
X238687500Y-25978125D03*
%TD*%
D13*
%TO.C,J6*%
X88400000Y-80650000D03*
D14*
X88400000Y-78110000D03*
X88400000Y-75570000D03*
X88400000Y-73030000D03*
%TD*%
D13*
%TO.C,J30*%
X151442500Y-54970000D03*
D14*
X151442500Y-57510000D03*
%TD*%
D20*
%TO.C,J9*%
X206875000Y-75720000D03*
X211925000Y-75720000D03*
X206875000Y-78260000D03*
X211925000Y-78260000D03*
X206875000Y-80800000D03*
X211925000Y-80800000D03*
X206875000Y-83340000D03*
X211925000Y-83340000D03*
X206875000Y-85880000D03*
X211925000Y-85880000D03*
%TD*%
D11*
%TO.C,K5*%
X159167500Y-50855000D03*
D12*
X159167500Y-40695000D03*
X159167500Y-33075000D03*
X151547500Y-35615000D03*
X151547500Y-50855000D03*
%TD*%
D13*
%TO.C,J17*%
X297737500Y-83060000D03*
D14*
X297737500Y-85600000D03*
X295197500Y-83060000D03*
X295197500Y-85600000D03*
X292657500Y-83060000D03*
X292657500Y-85600000D03*
X290117500Y-83060000D03*
X290117500Y-85600000D03*
X287577500Y-83060000D03*
X287577500Y-85600000D03*
X285037500Y-83060000D03*
X285037500Y-85600000D03*
X282497500Y-83060000D03*
X282497500Y-85600000D03*
X279957500Y-83060000D03*
X279957500Y-85600000D03*
X277417500Y-83060000D03*
X277417500Y-85600000D03*
X274877500Y-83060000D03*
X274877500Y-85600000D03*
%TD*%
D25*
%TO.C,J11*%
X159860000Y-82525000D03*
X159860000Y-77475000D03*
X162400000Y-82525000D03*
X162400000Y-77475000D03*
X164940000Y-82525000D03*
X164940000Y-77475000D03*
X167480000Y-82525000D03*
X167480000Y-77475000D03*
X170020000Y-82525000D03*
X170020000Y-77475000D03*
X172560000Y-82525000D03*
X172560000Y-77475000D03*
X175100000Y-82525000D03*
X175100000Y-77475000D03*
X177640000Y-82525000D03*
X177640000Y-77475000D03*
%TD*%
D26*
%TO.C,PS1*%
X32805000Y-51287500D03*
D12*
X27805000Y-51287500D03*
X38005000Y-80687500D03*
X22605000Y-80687500D03*
%TD*%
D27*
%TO.C,J3*%
X53680000Y-72940000D03*
X48640000Y-72940000D03*
X53680000Y-75480000D03*
X48640000Y-75480000D03*
X53680000Y-78020000D03*
X48640000Y-78020000D03*
X53680000Y-80560000D03*
X48640000Y-80560000D03*
%TD*%
D25*
%TO.C,J12*%
X229410000Y-82525000D03*
X229410000Y-77475000D03*
X231950000Y-82525000D03*
X231950000Y-77475000D03*
X234490000Y-82525000D03*
X234490000Y-77475000D03*
X237030000Y-82525000D03*
X237030000Y-77475000D03*
X239570000Y-82525000D03*
X239570000Y-77475000D03*
X242110000Y-82525000D03*
X242110000Y-77475000D03*
X244650000Y-82525000D03*
X244650000Y-77475000D03*
X247190000Y-82525000D03*
X247190000Y-77475000D03*
%TD*%
D21*
%TO.C,J31*%
X154107500Y-26050000D03*
D22*
X159187500Y-26050000D03*
X164267500Y-26050000D03*
%TD*%
D13*
%TO.C,J24*%
X77032500Y-54946000D03*
D14*
X77032500Y-57486000D03*
%TD*%
D11*
%TO.C,K2*%
X84757500Y-50831000D03*
D12*
X84757500Y-40671000D03*
X84757500Y-33051000D03*
X77137500Y-35591000D03*
X77137500Y-50831000D03*
%TD*%
D21*
%TO.C,J25*%
X79697500Y-26026000D03*
D22*
X84777500Y-26026000D03*
X89857500Y-26026000D03*
%TD*%
D28*
%TO.C,R2*%
X42287500Y-80550000D03*
X45212500Y-80550000D03*
%TD*%
D29*
%TO.C,C3*%
X36850000Y-43775000D03*
X21850000Y-43775000D03*
%TD*%
D13*
%TO.C,J26*%
X101717500Y-54960000D03*
D14*
X101717500Y-57500000D03*
%TD*%
D21*
%TO.C,J23*%
X54832500Y-26026000D03*
D22*
X59912500Y-26026000D03*
X64992500Y-26026000D03*
%TD*%
D21*
%TO.C,J37*%
X178927500Y-26040000D03*
D22*
X184007500Y-26040000D03*
X189087500Y-26040000D03*
%TD*%
D18*
%TO.C,F11*%
X192762500Y-43945000D03*
D19*
X192762500Y-55195000D03*
X192762500Y-32695000D03*
%TD*%
D30*
%TO.C,D1*%
X46437500Y-49720000D03*
X43637500Y-49720000D03*
%TD*%
D20*
%TO.C,J7*%
X183225000Y-75720000D03*
X188275000Y-75720000D03*
X183225000Y-78260000D03*
X188275000Y-78260000D03*
X183225000Y-80800000D03*
X188275000Y-80800000D03*
X183225000Y-83340000D03*
X188275000Y-83340000D03*
X183225000Y-85880000D03*
X188275000Y-85880000D03*
%TD*%
D16*
%TO.C,D2*%
X59902500Y-56466000D03*
D17*
X57362500Y-56466000D03*
%TD*%
D27*
%TO.C,J2*%
X72270000Y-72940000D03*
X67230000Y-72940000D03*
X72270000Y-75480000D03*
X67230000Y-75480000D03*
X72270000Y-78020000D03*
X67230000Y-78020000D03*
X72270000Y-80560000D03*
X67230000Y-80560000D03*
%TD*%
%TO.C,J5*%
X63070000Y-72940000D03*
X58030000Y-72940000D03*
X63070000Y-75480000D03*
X58030000Y-75480000D03*
X63070000Y-78020000D03*
X58030000Y-78020000D03*
X63070000Y-80560000D03*
X58030000Y-80560000D03*
%TD*%
%TO.C,J4*%
X81470000Y-72940000D03*
X76430000Y-72940000D03*
X81470000Y-75480000D03*
X76430000Y-75480000D03*
X81470000Y-78020000D03*
X76430000Y-78020000D03*
X81470000Y-80560000D03*
X76430000Y-80560000D03*
%TD*%
D13*
%TO.C,J15*%
X253017500Y-25460000D03*
D14*
X253017500Y-22920000D03*
X255557500Y-25460000D03*
X255557500Y-22920000D03*
X258097500Y-25460000D03*
X258097500Y-22920000D03*
X260637500Y-25460000D03*
X260637500Y-22920000D03*
X263177500Y-25460000D03*
X263177500Y-22920000D03*
X265717500Y-25460000D03*
X265717500Y-22920000D03*
%TD*%
D16*
%TO.C,D10*%
X159177500Y-56490000D03*
D17*
X156637500Y-56490000D03*
%TD*%
D28*
%TO.C,R1*%
X42287500Y-76750000D03*
X45212500Y-76750000D03*
%TD*%
D21*
%TO.C,J27*%
X104382500Y-26040000D03*
D22*
X109462500Y-26040000D03*
X114542500Y-26040000D03*
%TD*%
D16*
%TO.C,D12*%
X233597500Y-56418125D03*
D17*
X231057500Y-56418125D03*
%TD*%
D21*
%TO.C,J35*%
X203727500Y-26040000D03*
D22*
X208807500Y-26040000D03*
X213887500Y-26040000D03*
%TD*%
D13*
%TO.C,J19*%
X288597500Y-22920000D03*
D14*
X288597500Y-25460000D03*
X286057500Y-22920000D03*
X286057500Y-25460000D03*
X283517500Y-22920000D03*
X283517500Y-25460000D03*
X280977500Y-22920000D03*
X280977500Y-25460000D03*
X278437500Y-22920000D03*
X278437500Y-25460000D03*
X275897500Y-22920000D03*
X275897500Y-25460000D03*
X273357500Y-22920000D03*
X273357500Y-25460000D03*
X270817500Y-22920000D03*
X270817500Y-25460000D03*
%TD*%
D18*
%TO.C,F4*%
X68667500Y-43931000D03*
D19*
X68667500Y-55181000D03*
X68667500Y-32681000D03*
%TD*%
D25*
%TO.C,J14*%
X303540000Y-41475000D03*
X303540000Y-36425000D03*
X306080000Y-41475000D03*
X306080000Y-36425000D03*
X308620000Y-41475000D03*
X308620000Y-36425000D03*
X311160000Y-41475000D03*
X311160000Y-36425000D03*
%TD*%
D13*
%TO.C,J20*%
X258962500Y-71535000D03*
D14*
X258962500Y-68995000D03*
X261502500Y-71535000D03*
X261502500Y-68995000D03*
X264042500Y-71535000D03*
X264042500Y-68995000D03*
X266582500Y-71535000D03*
X266582500Y-68995000D03*
X269122500Y-71535000D03*
X269122500Y-68995000D03*
X271662500Y-71535000D03*
X271662500Y-68995000D03*
X274202500Y-71535000D03*
X274202500Y-68995000D03*
X276742500Y-71535000D03*
X276742500Y-68995000D03*
X279282500Y-71535000D03*
X279282500Y-68995000D03*
X281822500Y-71535000D03*
X281822500Y-68995000D03*
X284362500Y-71535000D03*
X284362500Y-68995000D03*
X286902500Y-71535000D03*
X286902500Y-68995000D03*
X289442500Y-71535000D03*
X289442500Y-68995000D03*
X291982500Y-71535000D03*
X291982500Y-68995000D03*
X294522500Y-71535000D03*
X294522500Y-68995000D03*
%TD*%
D13*
%TO.C,J1*%
X84850000Y-80600000D03*
D14*
X84850000Y-78060000D03*
X84850000Y-75520000D03*
X84850000Y-72980000D03*
%TD*%
D31*
%TO.C,A1*%
X288612500Y-30130000D03*
D32*
X286072500Y-30130000D03*
X283532500Y-30130000D03*
X280992500Y-30130000D03*
X278452500Y-30130000D03*
X275912500Y-30130000D03*
X273372500Y-30130000D03*
X270832500Y-30130000D03*
X265752500Y-30130000D03*
X263212500Y-30130000D03*
X260672500Y-30130000D03*
X258132500Y-30130000D03*
X255592500Y-30130000D03*
X253052500Y-30130000D03*
X253052500Y-78390000D03*
X255592500Y-78390000D03*
X258132500Y-78390000D03*
X260672500Y-78390000D03*
X263212500Y-78390000D03*
X265752500Y-78390000D03*
X268292500Y-78390000D03*
X270832500Y-78390000D03*
X274892500Y-78390000D03*
X277432500Y-78390000D03*
X279972500Y-78390000D03*
X282512500Y-78390000D03*
X285052500Y-78390000D03*
X287592500Y-78390000D03*
X290132500Y-78390000D03*
X292672500Y-78390000D03*
X295212500Y-78390000D03*
X297752500Y-78390000D03*
%TD*%
M02*
